# xmcd
#
# Track frame offsets:
#       150
#       13737
#       23015
#       33384
#       43865
#       53521
#       65823
#       77313
#       87133
#       98159
#
# Disc length: 1429 seconds
#
# Revision: 2
# Processed by: cddbd v1.5.2PL0 Copyright (c) Steve Scherf et al.
# Submitted via: FreeDbEdit v0.1
#
DISCID=6f05930a
DTITLE=The Stanley Brothers - Ridin' That Midnite Train
DYEAR=2003
DGENRE=Bluegrass
TTITLE0=Another Night
TTITLE1=Highway of Regret
TTITLE2=Clinch Mountain Backstep
TTITLE3=Carolina Mountain Home
TTITLE4=If I Lose
TTITLE5=My Deceitful Heart
TTITLE6=Choo Choo Coming
TTITLE7=Holiday Pickin'
TTITLE8=A Little at a Time
TTITLE9=Ridin' That Midnite Train
EXTD=
EXTT0=
EXTT1=
EXTT2=
EXTT3=
EXTT4=
EXTT5=
EXTT6=
EXTT7=
EXTT8=
EXTT9=
PLAYORDER=
